<mxfile host="app.diagrams.net" modified="2020-08-14T09:13:00.435Z" agent="5.0 (Macintosh; Intel Mac OS X 10_15_4) AppleWebKit/605.1.15 (KHTML, like Gecko) Version/13.1 Safari/605.1.15" etag="UnbupxOwfyh5t6R4zlTy" version="12.9.14" type="github">
  <diagram id="sItkJPxp9_hdeS-NqeHp" name="Page-1">
    <mxGraphModel dx="619" dy="397" grid="1" gridSize="10" guides="1" tooltips="1" connect="1" arrows="1" fold="1" page="1" pageScale="1" pageWidth="850" pageHeight="1100" math="0" shadow="0">
      <root>
        <mxCell id="0" />
        <mxCell id="1" parent="0" />
        <mxCell id="uM2yB790g2MNMPxcxwko-33" value="" style="edgeStyle=orthogonalEdgeStyle;rounded=0;orthogonalLoop=1;jettySize=auto;html=1;fontSize=1;" edge="1" parent="1" source="uM2yB790g2MNMPxcxwko-20" target="uM2yB790g2MNMPxcxwko-2">
          <mxGeometry relative="1" as="geometry" />
        </mxCell>
        <mxCell id="uM2yB790g2MNMPxcxwko-20" value="" style="rounded=0;whiteSpace=wrap;html=1;strokeColor=#E6E6E6;fontSize=1;" vertex="1" parent="1">
          <mxGeometry x="380" y="135" width="170" height="95" as="geometry" />
        </mxCell>
        <mxCell id="uM2yB790g2MNMPxcxwko-1" value="" style="html=1;verticalLabelPosition=bottom;labelBackgroundColor=#ffffff;verticalAlign=top;shadow=0;dashed=0;strokeWidth=1;shape=mxgraph.ios7.misc.iphone;strokeColor=#c0c0c0;" vertex="1" parent="1">
          <mxGeometry x="405" y="140" width="40" height="80" as="geometry" />
        </mxCell>
        <mxCell id="uM2yB790g2MNMPxcxwko-16" value="" style="group" vertex="1" connectable="0" parent="1">
          <mxGeometry x="410" y="260" width="110" height="90" as="geometry" />
        </mxCell>
        <mxCell id="uM2yB790g2MNMPxcxwko-13" value="" style="whiteSpace=wrap;html=1;aspect=fixed;fontSize=1;strokeColor=#E6E6E6;" vertex="1" parent="uM2yB790g2MNMPxcxwko-16">
          <mxGeometry x="10" width="90" height="90" as="geometry" />
        </mxCell>
        <mxCell id="uM2yB790g2MNMPxcxwko-15" value="" style="group" vertex="1" connectable="0" parent="uM2yB790g2MNMPxcxwko-16">
          <mxGeometry y="20" width="110" height="60" as="geometry" />
        </mxCell>
        <mxCell id="uM2yB790g2MNMPxcxwko-4" value="" style="shape=image;html=1;verticalAlign=top;verticalLabelPosition=bottom;labelBackgroundColor=#ffffff;imageAspect=0;aspect=fixed;image=https://cdn1.iconfinder.com/data/icons/social-shade-rounded-rects/512/wikipedia-128.png" vertex="1" parent="uM2yB790g2MNMPxcxwko-15">
          <mxGeometry x="35" width="38" height="38" as="geometry" />
        </mxCell>
        <mxCell id="uM2yB790g2MNMPxcxwko-9" value="Wikipedia API" style="text;html=1;strokeColor=none;fillColor=none;align=center;verticalAlign=middle;whiteSpace=wrap;rounded=0;fontSize=9;" vertex="1" parent="uM2yB790g2MNMPxcxwko-15">
          <mxGeometry y="40" width="110" height="20" as="geometry" />
        </mxCell>
        <mxCell id="uM2yB790g2MNMPxcxwko-17" value="" style="group" vertex="1" connectable="0" parent="1">
          <mxGeometry x="410" y="20" width="110" height="90" as="geometry" />
        </mxCell>
        <mxCell id="uM2yB790g2MNMPxcxwko-14" value="" style="whiteSpace=wrap;html=1;aspect=fixed;fontSize=1;strokeColor=#E6E6E6;" vertex="1" parent="uM2yB790g2MNMPxcxwko-17">
          <mxGeometry x="5" width="90" height="90" as="geometry" />
        </mxCell>
        <mxCell id="uM2yB790g2MNMPxcxwko-2" value="" style="dashed=0;outlineConnect=0;html=1;align=center;labelPosition=center;verticalLabelPosition=bottom;verticalAlign=top;shape=mxgraph.webicons.apple;fillColor=#807E7E;gradientColor=#1B1C1C" vertex="1" parent="uM2yB790g2MNMPxcxwko-17">
          <mxGeometry x="32" y="20" width="40" height="40" as="geometry" />
        </mxCell>
        <mxCell id="uM2yB790g2MNMPxcxwko-11" value="Maps API" style="text;html=1;strokeColor=none;fillColor=none;align=center;verticalAlign=middle;whiteSpace=wrap;rounded=0;fontSize=9;" vertex="1" parent="uM2yB790g2MNMPxcxwko-17">
          <mxGeometry y="60" width="110" height="20" as="geometry" />
        </mxCell>
        <mxCell id="uM2yB790g2MNMPxcxwko-18" value="" style="group" vertex="1" connectable="0" parent="1">
          <mxGeometry x="210" y="137.5" width="110" height="90" as="geometry" />
        </mxCell>
        <mxCell id="uM2yB790g2MNMPxcxwko-12" value="" style="whiteSpace=wrap;html=1;aspect=fixed;fontSize=1;strokeColor=#E6E6E6;" vertex="1" parent="uM2yB790g2MNMPxcxwko-18">
          <mxGeometry x="10" width="90" height="90" as="geometry" />
        </mxCell>
        <mxCell id="uM2yB790g2MNMPxcxwko-3" value="" style="dashed=0;outlineConnect=0;html=1;align=center;labelPosition=center;verticalLabelPosition=bottom;verticalAlign=top;shape=mxgraph.webicons.google;gradientColor=#DFDEDE" vertex="1" parent="uM2yB790g2MNMPxcxwko-18">
          <mxGeometry x="35" y="10" width="40" height="42.4" as="geometry" />
        </mxCell>
        <mxCell id="uM2yB790g2MNMPxcxwko-7" value="Google Places API&lt;br style=&quot;font-size: 9px;&quot;&gt;" style="text;html=1;strokeColor=none;fillColor=none;align=center;verticalAlign=middle;whiteSpace=wrap;rounded=0;fontSize=9;" vertex="1" parent="uM2yB790g2MNMPxcxwko-18">
          <mxGeometry y="52.400000000000006" width="110" height="20" as="geometry" />
        </mxCell>
        <mxCell id="uM2yB790g2MNMPxcxwko-23" value="&lt;span style=&quot;font-family: &amp;#34;helvetica&amp;#34; ; font-size: 9px ; font-style: normal ; font-weight: normal ; letter-spacing: normal ; text-align: center ; text-indent: 0px ; text-transform: none ; word-spacing: 0px ; text-decoration: none ; float: none ; display: inline&quot;&gt;CoreLocation&lt;/span&gt;" style="text;whiteSpace=wrap;html=1;fontSize=1;" vertex="1" parent="1">
          <mxGeometry x="460" y="150" width="60" height="20" as="geometry" />
        </mxCell>
        <mxCell id="uM2yB790g2MNMPxcxwko-24" value="&lt;div style=&quot;text-align: center&quot;&gt;&lt;font face=&quot;helvetica&quot;&gt;&lt;span style=&quot;font-size: 9px&quot;&gt;CoreMotion&lt;/span&gt;&lt;/font&gt;&lt;/div&gt;" style="text;whiteSpace=wrap;html=1;fontSize=1;" vertex="1" parent="1">
          <mxGeometry x="460" y="170" width="60" height="20" as="geometry" />
        </mxCell>
        <mxCell id="uM2yB790g2MNMPxcxwko-29" value="" style="endArrow=none;html=1;fontSize=1;entryX=0;entryY=0.5;entryDx=0;entryDy=0;exitX=1;exitY=0.5;exitDx=0;exitDy=0;" edge="1" parent="1" source="uM2yB790g2MNMPxcxwko-12" target="uM2yB790g2MNMPxcxwko-20">
          <mxGeometry width="50" height="50" relative="1" as="geometry">
            <mxPoint x="300" y="280" as="sourcePoint" />
            <mxPoint x="350" y="230" as="targetPoint" />
          </mxGeometry>
        </mxCell>
        <mxCell id="uM2yB790g2MNMPxcxwko-30" value="" style="endArrow=none;html=1;fontSize=1;entryX=0.5;entryY=1;entryDx=0;entryDy=0;exitX=0.5;exitY=0;exitDx=0;exitDy=0;" edge="1" parent="1" source="uM2yB790g2MNMPxcxwko-13" target="uM2yB790g2MNMPxcxwko-20">
          <mxGeometry width="50" height="50" relative="1" as="geometry">
            <mxPoint x="280" y="330" as="sourcePoint" />
            <mxPoint x="330" y="280" as="targetPoint" />
          </mxGeometry>
        </mxCell>
      </root>
    </mxGraphModel>
  </diagram>
</mxfile>
